<svg class="svg-back" width="132" height="43" viewBox="0 0 132 43" fill="none" xmlns="http://www.w3.org/2000/svg">
    <path d="M19.8716 12.9122H13.9343V6.28316H5.28776V12.9122H0.67627V21.2129H5.28776V31.4158C5.28776 35.6238 6.32535 38.506 8.45817 40.1777C10.591 41.7917 14.3955 42.3105 19.8716 41.734V33.8945C15.6636 34.1251 13.9343 33.7216 13.9343 31.4158V21.2129H19.8716V12.9122Z" fill="#313131"></path>
    <path d="M48.8758 38.1601C51.8157 35.2203 53.3144 31.5887 53.3144 27.3231C53.3144 23.0575 51.8157 19.4836 48.8758 16.5437C45.936 13.6039 42.3045 12.1052 38.0388 12.1052C33.7732 12.1052 30.1416 13.6039 27.2018 16.5437C24.262 19.4836 22.7633 23.0575 22.7633 27.3231C22.7633 31.5887 24.262 35.2203 27.2018 38.1601C30.1416 41.1 33.7732 42.541 38.0388 42.541C42.3045 42.541 45.936 41.1 48.8758 38.1601ZM33.3121 32.2228C32.0439 30.9547 31.4098 29.3406 31.4098 27.3231C31.4098 25.3056 32.0439 23.6916 33.3121 22.4234C34.5802 21.1552 36.1366 20.5212 38.0388 20.5212C39.9411 20.5212 41.4975 21.1552 42.7656 22.4234C44.0338 23.6916 44.6679 25.3056 44.6679 27.3231C44.6679 29.3406 44.0338 30.9547 42.7656 32.2228C41.4975 33.491 39.9411 34.1251 38.0388 34.1251C36.1366 34.1251 34.5802 33.491 33.3121 32.2228Z" fill="#313131"></path>
    <path d="M66.1599 8.87713C68.2351 6.80196 68.2351 3.57391 66.1599 1.55638C64.1424 -0.518793 60.9144 -0.518793 58.8392 1.55638C56.8217 3.57391 56.8217 6.80196 58.8392 8.87713C60.9144 10.8947 64.1424 10.8947 66.1599 8.87713ZM66.8517 41.734V12.9122H58.2051V41.734H66.8517Z" fill="#313131"></path>
    <path d="M105.459 12.1052C101.655 12.1052 98.888 13.3733 97.1011 15.9097C95.4294 13.3733 92.8931 12.1052 89.5498 12.1052C85.9759 12.1052 83.3819 13.258 81.8255 15.5638V12.9122H73.179V41.734H81.8255V25.4785C81.8255 22.0775 83.4972 20.06 86.3217 20.06C89.031 20.06 90.4721 21.847 90.4721 24.7868V41.734H99.1186V25.4785C99.1186 22.0775 100.79 20.06 103.615 20.06C106.324 20.06 107.765 21.847 107.765 24.7868V41.734H116.412V24.0374C116.412 20.4059 115.432 17.5237 113.414 15.3909C111.397 13.2004 108.745 12.1052 105.459 12.1052Z" fill="#313131"></path>
    <path d="M130.277 8.87713C132.352 6.80196 132.352 3.57391 130.277 1.55638C128.26 -0.518793 125.032 -0.518793 122.957 1.55638C120.939 3.57391 120.939 6.80196 122.957 8.87713C125.032 10.8947 128.26 10.8947 130.277 8.87713ZM130.969 41.734V12.9122H122.322V41.734H130.969Z" fill="#313131"></path>
</svg>